<svg width="30" height="17" viewBox="0 0 30 17" fill="none" xmlns="http://www.w3.org/2000/svg">
<path d="M16.3302 15.8048L29.5748 2.56012C29.6979 2.43706 29.7955 2.29097 29.8621 2.13019C29.9287 1.96941 29.963 1.79708 29.963 1.62305C29.963 1.44903 29.9287 1.2767 29.8621 1.11592C29.7955 0.95514 29.6979 0.80905 29.5748 0.685994C29.4518 0.562937 29.3057 0.465324 29.1449 0.398726C28.9841 0.332128 28.8118 0.297852 28.6378 0.297852C28.4638 0.297852 28.2914 0.332128 28.1306 0.398726C27.9699 0.465324 27.8238 0.562937 27.7007 0.685994L15.3931 12.9953L3.08551 0.685994C2.83698 0.43747 2.49991 0.297852 2.14845 0.297852C1.79698 0.297852 1.45991 0.43747 1.21139 0.685994C0.962861 0.934518 0.823242 1.27159 0.823242 1.62305C0.823242 1.97452 0.962861 2.31159 1.21139 2.56012L14.4561 15.8048C14.5791 15.9279 14.7251 16.0256 14.8859 16.0923C15.0467 16.1589 15.2191 16.1932 15.3931 16.1932C15.5672 16.1932 15.7395 16.1589 15.9003 16.0923C16.0611 16.0256 16.2072 15.9279 16.3302 15.8048Z" fill="white"/>
</svg>
