<svg width="18" height="18" viewBox="0 0 18 18" fill="none" xmlns="http://www.w3.org/2000/svg">
<path d="M0.75 2.125V6.25C0.75 6.43234 0.822432 6.60721 0.951363 6.73614C1.0803 6.86507 1.25516 6.9375 1.4375 6.9375H5.5625C5.74484 6.9375 5.91971 6.86507 6.04864 6.73614C6.17757 6.60721 6.25 6.43234 6.25 6.25C6.25 6.06767 6.17757 5.8928 6.04864 5.76387C5.91971 5.63493 5.74484 5.5625 5.5625 5.5625H3.09695L4.35422 4.30524C5.63196 3.02168 7.36678 2.29752 9.17789 2.29172H9.21656C11.0125 2.28751 12.7379 2.99046 14.0196 4.24852C14.1509 4.37108 14.325 4.4374 14.5045 4.43328C14.6841 4.42916 14.8549 4.35493 14.9804 4.22648C15.106 4.09802 15.1763 3.92554 15.1763 3.74592C15.1762 3.56631 15.1059 3.39384 14.9804 3.26539C13.427 1.74722 11.3377 0.902867 9.16566 0.915577C6.99366 0.928287 4.9143 1.79703 3.37883 3.33328L2.125 4.59055V2.125C2.125 1.94267 2.05257 1.7678 1.92364 1.63887C1.79471 1.50994 1.61984 1.4375 1.4375 1.4375C1.25516 1.4375 1.0803 1.50994 0.951363 1.63887C0.822432 1.7678 0.75 1.94267 0.75 2.125ZM3.98039 13.7515C5.27475 15.0158 7.01536 15.7189 8.82474 15.7083C10.6341 15.6977 12.3663 14.9742 13.6458 13.6948L14.903 12.4375H12.4375C12.2552 12.4375 12.0803 12.3651 11.9514 12.2361C11.8224 12.1072 11.75 11.9323 11.75 11.75C11.75 11.5677 11.8224 11.3928 11.9514 11.2639C12.0803 11.1349 12.2552 11.0625 12.4375 11.0625H16.5625C16.7448 11.0625 16.9197 11.1349 17.0486 11.2639C17.1776 11.3928 17.25 11.5677 17.25 11.75V15.875C17.25 16.0573 17.1776 16.2322 17.0486 16.3611C16.9197 16.4901 16.7448 16.5625 16.5625 16.5625C16.3802 16.5625 16.2053 16.4901 16.0764 16.3611C15.9474 16.2322 15.875 16.0573 15.875 15.875V13.4095L14.6177 14.6667C13.0844 16.2077 11.002 17.0769 8.82812 17.0833H8.78258C6.6272 17.0888 4.5564 16.245 3.01875 14.7346C2.8932 14.6062 2.8229 14.4337 2.82289 14.2541C2.82288 14.0745 2.89316 13.902 3.0187 13.7735C3.14424 13.6451 3.31506 13.5708 3.49462 13.5667C3.67419 13.5626 3.84824 13.6289 3.97953 13.7515H3.98039Z" fill="black"/>
</svg>
