<svg width="26" height="26" viewBox="0 0 26 26" fill="none" xmlns="http://www.w3.org/2000/svg">
<path d="M12.7567 7.5637C11.6325 7.5637 10.5336 7.89706 9.59886 8.52162C8.66414 9.14619 7.93561 10.0339 7.5054 11.0725C7.07519 12.1111 6.96263 13.254 7.18195 14.3566C7.40126 15.4592 7.94261 16.472 8.73753 17.2669C9.53245 18.0618 10.5452 18.6031 11.6478 18.8225C12.7504 19.0418 13.8933 18.9292 14.9319 18.499C15.9705 18.0688 16.8582 17.3403 17.4828 16.4055C18.1074 15.4708 18.4407 14.3719 18.4407 13.2477C18.4391 11.7407 17.8398 10.2958 16.7742 9.23023C15.7086 8.16462 14.2637 7.56526 12.7567 7.5637ZM12.7567 17.037C12.0073 17.037 11.2746 16.8148 10.6515 16.3984C10.0283 15.982 9.54264 15.3902 9.25584 14.6978C8.96903 14.0054 8.89399 13.2435 9.0402 12.5084C9.18642 11.7734 9.54732 11.0982 10.0773 10.5682C10.6072 10.0383 11.2824 9.67738 12.0175 9.53117C12.7525 9.38496 13.5144 9.46 14.2068 9.74681C14.8992 10.0336 15.4911 10.5193 15.9074 11.1425C16.3238 11.7656 16.546 12.4982 16.546 13.2477C16.546 14.2527 16.1468 15.2165 15.4362 15.9271C14.7255 16.6378 13.7617 17.037 12.7567 17.037ZM18.4407 0.932373H7.07273C5.31457 0.934254 3.62896 1.63351 2.38575 2.87672C1.14255 4.11993 0.443287 5.80554 0.441406 7.5637V18.9317C0.443287 20.6898 1.14255 22.3755 2.38575 23.6187C3.62896 24.8619 5.31457 25.5611 7.07273 25.563H18.4407C20.1989 25.5611 21.8845 24.8619 23.1277 23.6187C24.3709 22.3755 25.0702 20.6898 25.072 18.9317V7.5637C25.0702 5.80554 24.3709 4.11993 23.1277 2.87672C21.8845 1.63351 20.1989 0.934254 18.4407 0.932373ZM23.1774 18.9317C23.1774 20.1879 22.6783 21.3927 21.79 22.281C20.9017 23.1693 19.697 23.6683 18.4407 23.6683H7.07273C5.81649 23.6683 4.6117 23.1693 3.72341 22.281C2.83511 21.3927 2.33607 20.1879 2.33607 18.9317V7.5637C2.33607 6.30746 2.83511 5.10267 3.72341 4.21437C4.6117 3.32608 5.81649 2.82704 7.07273 2.82704H18.4407C19.697 2.82704 20.9017 3.32608 21.79 4.21437C22.6783 5.10267 23.1774 6.30746 23.1774 7.5637V18.9317ZM20.3354 7.09003C20.3354 7.37108 20.252 7.64581 20.0959 7.87949C19.9398 8.11318 19.7178 8.29531 19.4582 8.40286C19.1985 8.51041 18.9128 8.53855 18.6372 8.48372C18.3615 8.4289 18.1083 8.29356 17.9096 8.09483C17.7109 7.8961 17.5755 7.6429 17.5207 7.36725C17.4659 7.09161 17.494 6.80589 17.6015 6.54624C17.7091 6.28658 17.8912 6.06466 18.1249 5.90851C18.3586 5.75237 18.6333 5.66903 18.9144 5.66903C19.2913 5.66903 19.6527 5.81874 19.9192 6.08523C20.1857 6.35172 20.3354 6.71316 20.3354 7.09003Z" fill="#C1BB7A"/>
</svg>
