<svg width="15" height="15" viewBox="0 0 15 15" fill="none" xmlns="http://www.w3.org/2000/svg">
<path d="M7.47765 0.748291C6.11537 0.748291 4.78368 1.15225 3.65099 1.90909C2.5183 2.66594 1.63547 3.74166 1.11415 5.00024C0.592828 6.25882 0.456427 7.64373 0.722194 8.97983C0.987961 10.3159 1.64396 11.5432 2.60724 12.5065C3.57051 13.4698 4.7978 14.1258 6.1339 14.3915C7.47001 14.6573 8.85491 14.5209 10.1135 13.9996C11.3721 13.4783 12.4478 12.5954 13.2046 11.4627C13.9615 10.3301 14.3654 8.99837 14.3654 7.63609C14.3635 5.80992 13.6372 4.05911 12.3459 2.76781C11.0546 1.47652 9.30381 0.750219 7.47765 0.748291ZM7.47765 13.4642C6.32495 13.4642 5.19814 13.1224 4.23971 12.482C3.28127 11.8416 2.53427 10.9314 2.09315 9.86642C1.65203 8.80147 1.53661 7.62962 1.76149 6.49908C1.98637 5.36853 2.54145 4.33005 3.35653 3.51497C4.17161 2.69989 5.21008 2.14482 6.34063 1.91994C7.47118 1.69506 8.64303 1.81047 9.70798 2.25159C10.7729 2.69271 11.6832 3.43972 12.3236 4.39815C12.964 5.35658 13.3058 6.48339 13.3058 7.63609C13.304 9.18127 12.6894 10.6627 11.5968 11.7553C10.5042 12.8479 9.02283 13.4625 7.47765 13.4642ZM8.53731 10.8151C8.53731 10.9556 8.48149 11.0904 8.38212 11.1897C8.28276 11.2891 8.148 11.3449 8.00748 11.3449C7.72644 11.3449 7.45691 11.2333 7.25818 11.0345C7.05946 10.8358 6.94781 10.5663 6.94781 10.2852V7.63609C6.8073 7.63609 6.67253 7.58027 6.57317 7.48091C6.47381 7.38154 6.41798 7.24678 6.41798 7.10626C6.41798 6.96574 6.47381 6.83098 6.57317 6.73161C6.67253 6.63225 6.8073 6.57643 6.94781 6.57643C7.22885 6.57643 7.49838 6.68807 7.69711 6.8868C7.89583 7.08552 8.00748 7.35505 8.00748 7.63609V10.2852C8.148 10.2852 8.28276 10.3411 8.38212 10.4404C8.48149 10.5398 8.53731 10.6746 8.53731 10.8151ZM6.41798 4.72202C6.41798 4.56484 6.4646 4.41118 6.55192 4.28048C6.63925 4.14979 6.76337 4.04792 6.90859 3.98777C7.05382 3.92762 7.21361 3.91188 7.36778 3.94255C7.52194 3.97321 7.66355 4.0489 7.7747 4.16005C7.88585 4.2712 7.96154 4.41281 7.99221 4.56697C8.02287 4.72114 8.00713 4.88094 7.94698 5.02616C7.88683 5.17138 7.78496 5.2955 7.65427 5.38283C7.52357 5.47016 7.36992 5.51677 7.21273 5.51677C7.00195 5.51677 6.7998 5.43304 6.65076 5.28399C6.50172 5.13495 6.41798 4.9328 6.41798 4.72202Z" fill="#C1BB7A"/>
</svg>
