<svg width="26" height="27" viewBox="0 0 26 27" fill="none" xmlns="http://www.w3.org/2000/svg">
<path d="M24.1228 7.61619C22.6157 7.61462 21.1709 7.01527 20.1053 5.94965C19.0397 4.88404 18.4403 3.4392 18.4388 1.9322C18.4388 1.68095 18.339 1.43999 18.1613 1.26233C17.9836 1.08467 17.7427 0.984863 17.4914 0.984863H12.7548C12.5035 0.984863 12.2626 1.08467 12.0849 1.26233C11.9072 1.43999 11.8074 1.68095 11.8074 1.9322V17.5632C11.8072 17.987 11.6933 18.4029 11.4776 18.7677C11.2619 19.1325 10.9522 19.4327 10.5809 19.637C10.2096 19.8413 9.79031 19.9423 9.36671 19.9293C8.94311 19.9164 8.53075 19.79 8.17264 19.5634C7.81453 19.3367 7.52379 19.0182 7.33075 18.6409C7.13771 18.2636 7.04943 17.8415 7.07514 17.4184C7.10084 16.9954 7.23958 16.5871 7.47688 16.2359C7.71419 15.8848 8.04136 15.6038 8.42428 15.4222C8.58625 15.3453 8.72309 15.2241 8.81888 15.0725C8.91468 14.921 8.9655 14.7453 8.96544 14.5661V9.51085C8.9655 9.37237 8.9352 9.23557 8.87668 9.11007C8.81815 8.98456 8.73282 8.87342 8.6267 8.78446C8.52058 8.6955 8.39624 8.63088 8.26245 8.59516C8.12866 8.55945 7.98867 8.5535 7.85233 8.57773C3.62604 9.33086 0.439453 13.1936 0.439453 17.5632C0.439453 19.95 1.38763 22.2391 3.07539 23.9269C4.76315 25.6147 7.05225 26.5628 9.43911 26.5628C11.826 26.5628 14.1151 25.6147 15.8028 23.9269C17.4906 22.2391 18.4388 19.95 18.4388 17.5632V12.8609C20.1933 13.7763 22.1438 14.2521 24.1228 14.2475C24.374 14.2475 24.615 14.1477 24.7926 13.97C24.9703 13.7924 25.0701 13.5514 25.0701 13.3002V8.56352C25.0701 8.31227 24.9703 8.07131 24.7926 7.89365C24.615 7.716 24.374 7.61619 24.1228 7.61619ZM23.1754 12.3102C21.3241 12.1462 19.5515 11.4855 18.0444 10.3978C17.9028 10.296 17.7358 10.2352 17.5618 10.2222C17.3878 10.2093 17.2137 10.2446 17.0585 10.3243C16.9033 10.4041 16.7732 10.5251 16.6824 10.6741C16.5916 10.8231 16.5438 10.9942 16.5441 11.1687V17.5632C16.5441 19.4475 15.7955 21.2547 14.4631 22.5872C13.1306 23.9196 11.3235 24.6682 9.43911 24.6682C7.55475 24.6682 5.74756 23.9196 4.41512 22.5872C3.08268 21.2547 2.33412 19.4475 2.33412 17.5632C2.33412 14.4962 4.30457 11.7454 7.07078 10.7424V14.019C6.45839 14.4281 5.96245 14.989 5.63131 15.6469C5.30016 16.3047 5.1451 17.0372 5.18125 17.7728C5.2174 18.5084 5.44351 19.2221 5.83755 19.8443C6.2316 20.4666 6.78013 20.9761 7.42968 21.3233C8.07924 21.6704 8.80765 21.8434 9.54394 21.8253C10.2802 21.8072 10.9993 21.5986 11.631 21.2199C12.2627 20.8412 12.7855 20.3053 13.1484 19.6645C13.5114 19.0236 13.7022 18.2997 13.7021 17.5632V2.87953H16.6033C16.8164 4.54811 17.5773 6.09877 18.7667 7.28821C19.9562 8.47766 21.5068 9.2386 23.1754 9.45164V12.3102Z" fill="#C1BB7A"/>
</svg>
