<svg width="35" height="37" viewBox="0 0 35 37" fill="none" xmlns="http://www.w3.org/2000/svg">
<g id="person">
<path id="icon" d="M17.5 18.1481C15.8959 18.1481 14.5226 17.5557 13.3802 16.3711C12.2379 15.1864 11.6667 13.7623 11.6667 12.0987C11.6667 10.4351 12.2379 9.01099 13.3802 7.82632C14.5226 6.64165 15.8959 6.04932 17.5 6.04932C19.1042 6.04932 20.4775 6.64165 21.6198 7.82632C22.7622 9.01099 23.3334 10.4351 23.3334 12.0987C23.3334 13.7623 22.7622 15.1864 21.6198 16.3711C20.4775 17.5557 19.1042 18.1481 17.5 18.1481ZM5.83337 30.2468V26.0123C5.83337 25.1553 6.04605 24.3676 6.47139 23.6492C6.89674 22.9309 7.46185 22.3826 8.16671 22.0046C9.67365 21.2232 11.2049 20.6371 12.7605 20.2465C14.316 19.8558 15.8959 19.6604 17.5 19.6604C19.1042 19.6604 20.6841 19.8558 22.2396 20.2465C23.7952 20.6371 25.3264 21.2232 26.8334 22.0046C27.5382 22.3826 28.1033 22.9309 28.5287 23.6492C28.954 24.3676 29.1667 25.1553 29.1667 26.0123V30.2468H5.83337ZM8.75004 27.2222H26.25V26.0123C26.25 25.735 26.1832 25.483 26.0495 25.2561C25.9158 25.0293 25.7396 24.8528 25.5209 24.7268C24.2084 24.0462 22.8837 23.5358 21.5469 23.1955C20.2101 22.8553 18.8612 22.6851 17.5 22.6851C16.1389 22.6851 14.79 22.8553 13.4532 23.1955C12.1164 23.5358 10.7917 24.0462 9.47921 24.7268C9.26046 24.8528 9.08424 25.0293 8.95056 25.2561C8.81688 25.483 8.75004 25.735 8.75004 26.0123V27.2222ZM17.5 15.1234C18.3021 15.1234 18.9888 14.8272 19.5599 14.2349C20.1311 13.6426 20.4167 12.9305 20.4167 12.0987C20.4167 11.2669 20.1311 10.5548 19.5599 9.96251C18.9888 9.37018 18.3021 9.07401 17.5 9.07401C16.698 9.07401 16.0113 9.37018 15.4401 9.96251C14.869 10.5548 14.5834 11.2669 14.5834 12.0987C14.5834 12.9305 14.869 13.6426 15.4401 14.2349C16.0113 14.8272 16.698 15.1234 17.5 15.1234Z" fill="#F2F1CE"/>
</g>
</svg>
