<svg width="35" height="37" viewBox="0 0 35 37" fill="none" xmlns="http://www.w3.org/2000/svg">
<path id="Vector" d="M35 13.7402C34.988 13.6847 34.9665 13.6316 34.9363 13.5835C34.9363 13.5835 34.9363 13.5835 34.9363 13.5492C34.8988 13.4943 34.8504 13.4476 34.7942 13.412C31.0586 11.0152 27.517 8.32868 24.202 5.37721L25.3632 5.41641C25.4556 5.42059 25.5473 5.3985 25.6277 5.35272L30.2183 2.80021C30.2746 2.76902 30.3243 2.72705 30.3643 2.67668C30.4044 2.62631 30.4342 2.56853 30.4519 2.50665C30.4697 2.44477 30.4751 2.38 30.4678 2.31605C30.4605 2.25209 30.4406 2.1902 30.4094 2.13391L29.3659 0.252594C29.3347 0.196279 29.2927 0.14666 29.2423 0.106576C29.192 0.0664911 29.1342 0.0367258 29.0723 0.0189811C29.0104 0.00123636 28.9457 -0.00413947 28.8817 0.00316021C28.8177 0.0104599 28.7558 0.0302921 28.6996 0.0615237L24.109 2.61403C24.0311 2.65794 23.9667 2.72232 23.9228 2.80021L23.0458 4.32877C21.3507 2.79531 20.1063 1.57539 19.6653 1.04137C19.6235 0.992478 19.5725 0.952296 19.5151 0.923125C19.4578 0.893954 19.3952 0.876364 19.3311 0.87136C19.267 0.866356 19.2025 0.874035 19.1413 0.893959C19.0801 0.913883 19.0234 0.945663 18.9745 0.987482C18.9256 1.0293 18.8855 1.08034 18.8563 1.13769C18.8271 1.19504 18.8095 1.25757 18.8045 1.32172C18.7995 1.38586 18.8072 1.45037 18.8271 1.51155C18.8471 1.57273 18.8788 1.62938 18.9207 1.67828C21.2754 4.1295 23.791 6.4209 26.4508 8.53723L20.1455 4.92158C20.0812 4.66259 19.9582 4.42186 19.786 4.21802C19.6138 4.01417 19.3971 3.85268 19.1524 3.74604C18.9078 3.63941 18.642 3.59048 18.3754 3.60306C18.1089 3.61563 17.8488 3.68937 17.6153 3.81856C17.3819 3.94775 17.1812 4.12894 17.029 4.34809C16.8768 4.56724 16.777 4.81848 16.7374 5.08237C16.6978 5.34626 16.7195 5.61571 16.8007 5.86989C16.882 6.12406 17.0206 6.35613 17.2059 6.54814L15.2462 9.80614L15.1727 9.77184C14.8757 9.64612 14.5415 9.64016 14.2401 9.75522C13.9388 9.87028 13.6936 10.0974 13.556 10.3891C13.4407 10.6534 13.4227 10.9499 13.5052 11.2261C13.5877 11.5023 13.7654 11.7404 14.0067 11.8981L12.2969 14.7593L10.44 13.6814C10.3844 13.6489 10.3229 13.6276 10.259 13.6188C10.1952 13.61 10.1302 13.6139 10.0678 13.6303C10.0055 13.6467 9.94697 13.6752 9.89566 13.7143C9.84436 13.7533 9.80126 13.8021 9.76884 13.8578L8.55383 15.9498C8.52144 16.0057 8.50042 16.0675 8.49201 16.1316C8.48359 16.1956 8.48793 16.2607 8.50478 16.3231C8.52163 16.3855 8.55065 16.444 8.59018 16.4951C8.62971 16.5462 8.67896 16.589 8.7351 16.621L9.62677 17.1109L9.27402 17.7135L8.44605 17.2236C8.12997 17.0392 7.75381 16.9872 7.39955 17.079C7.0453 17.1707 6.7417 17.3988 6.55493 17.7135L6.42265 17.9389C6.25375 18.236 6.20136 18.5852 6.27568 18.9188C5.94376 19.0194 5.66206 19.2416 5.4869 19.541L5.35462 19.7663C5.18404 20.0627 5.1299 20.412 5.20274 20.7462C4.87082 20.8468 4.58912 21.069 4.41396 21.3684L4.28168 21.5937C4.11111 21.8902 4.05697 22.2395 4.1298 22.5736C3.79766 22.6738 3.51581 22.8961 3.34102 23.1958L3.20874 23.4212C3.03772 23.7174 2.98355 24.0669 3.05687 24.401C2.88798 24.4655 2.73351 24.5628 2.60234 24.6873C2.47118 24.8117 2.36591 24.9608 2.29258 25.1261L2.1603 25.3515C1.98973 25.6479 1.93559 25.9972 2.00843 26.3313C1.67628 26.4315 1.39444 26.6538 1.21965 26.9535L1.08737 27.1789C0.902933 27.495 0.850935 27.8711 0.94271 28.2254C1.03449 28.5796 1.26259 28.8832 1.57729 29.07L2.26319 29.4668L1.77326 30.2752C1.74067 30.3308 1.71937 30.3924 1.71059 30.4562C1.70182 30.5201 1.70574 30.5851 1.72212 30.6474C1.73851 30.7098 1.76704 30.7683 1.80608 30.8196C1.84512 30.8709 1.89391 30.914 1.94964 30.9464C2.07756 31.0208 2.18063 31.1313 2.24585 31.2641C2.31107 31.3969 2.33553 31.546 2.31615 31.6927C2.29676 31.8394 2.23441 31.9771 2.13693 32.0884C2.03945 32.1997 1.91121 32.2797 1.76836 32.3182C1.57603 32.3685 1.3716 32.3403 1.20005 32.2398C1.13083 32.1998 1.05285 32.1773 0.972942 32.1743C0.893029 32.1714 0.813605 32.188 0.741602 32.2228C0.6696 32.2576 0.607209 32.3095 0.559876 32.3739C0.512544 32.4384 0.481708 32.5135 0.470061 32.5926L0.00463196 35.7869C-0.00870378 35.8832 0.00690993 35.9813 0.0494864 36.0687C0.0920629 36.1561 0.159678 36.2288 0.243726 36.2777C0.327774 36.3265 0.424455 36.3493 0.521468 36.343C0.618481 36.3367 0.711438 36.3018 0.788512 36.2425L3.33612 34.2583C3.38572 34.2193 3.42731 34.171 3.45861 34.1162L5.17334 31.1767L5.85924 31.5735C6.17531 31.758 6.55148 31.81 6.90573 31.7182C7.25999 31.6264 7.56359 31.3983 7.75035 31.0836L7.88263 30.8582C8.05366 30.562 8.10782 30.2125 8.03451 29.8784C8.36665 29.7782 8.6485 29.5559 8.82329 29.2562L8.97027 29.0014C9.14129 28.7052 9.19546 28.3557 9.12214 28.0216C9.47049 27.9279 9.76795 27.7009 9.95012 27.3896L10.0824 27.1642C10.253 26.8678 10.3071 26.5185 10.2343 26.1843C10.5664 26.0841 10.8483 25.8618 11.0231 25.5621L11.1553 25.3368C11.3242 25.0397 11.3766 24.6905 11.3023 24.3569C11.6345 24.2567 11.9163 24.0344 12.0911 23.7347L12.2234 23.5093C12.3944 23.2131 12.4486 22.8636 12.3752 22.5295C12.7064 22.4301 12.9879 22.2097 13.164 21.9122L13.2963 21.6868C13.4807 21.3708 13.5327 20.9946 13.441 20.6403C13.3492 20.2861 13.1211 19.9825 12.8064 19.7957L11.9098 19.247L12.2773 18.6101L13.1346 19.1C13.1953 19.1339 13.2625 19.1545 13.3318 19.1604C13.4011 19.1663 13.4708 19.1574 13.5364 19.1343C13.7078 19.074 13.8903 19.0515 14.0713 19.0684C14.2523 19.0854 14.4275 19.1413 14.5848 19.2323L24.3833 24.9987C24.3548 25.3689 24.4129 25.7405 24.553 26.0843C24.6931 26.4281 24.9113 26.7346 25.1903 26.9794C25.4694 27.2242 25.8016 27.4007 26.1607 27.4949C26.5198 27.589 26.8959 27.5982 27.2592 27.5218H27.3082C27.6373 27.4515 27.948 27.3132 28.2205 27.1158C28.493 26.9184 28.7213 26.6662 28.8906 26.3754C29.165 25.8982 29.267 25.3413 29.1797 24.7979C29.5013 22.9514 30.0836 21.1599 30.9091 19.4773L31.2913 19.6487C31.4453 19.7185 31.6121 19.7552 31.7812 19.7565C32.0603 19.7537 32.3302 19.6556 32.546 19.4785C32.7617 19.3014 32.9105 19.0558 32.9677 18.7826C33.0249 18.5093 32.987 18.2247 32.8603 17.976C32.7336 17.7272 32.5257 17.5292 32.2711 17.4147L32.178 17.3706C32.9907 16.24 33.8795 15.1663 34.8383 14.1567C34.8562 14.1384 34.8725 14.1187 34.8873 14.0979C34.8973 14.0757 34.9055 14.0528 34.9118 14.0293C34.9442 13.9641 34.9578 13.8911 34.951 13.8186C34.952 13.8007 34.952 13.7827 34.951 13.7647L35 13.7402ZM24.6773 3.40771L28.7241 1.15896L29.2924 2.1829L25.2456 4.43166L24.109 4.39246L24.6773 3.40771ZM29.7382 16.2732L29.3561 16.1017C29.5716 16.0331 29.7725 15.9792 29.9538 15.9351C29.8803 16.0429 29.8117 16.1605 29.7382 16.2732ZM17.7889 4.98037C17.8419 4.89102 17.9128 4.81356 17.9971 4.75286C18.0814 4.69217 18.1773 4.64953 18.2788 4.62763C18.3428 4.61108 18.4087 4.60284 18.4748 4.60313C18.6407 4.60955 18.7999 4.67014 18.9281 4.77564C19.0562 4.88113 19.1463 5.02572 19.1845 5.18727C19.2227 5.34883 19.2069 5.51844 19.1395 5.67016C19.0721 5.82187 18.9569 5.94733 18.8114 6.02733C18.666 6.10733 18.4983 6.13747 18.3341 6.11312C18.1699 6.08878 18.0182 6.0113 17.9022 5.89254C17.7862 5.77378 17.7123 5.62028 17.6919 5.45554C17.6714 5.2908 17.7055 5.1239 17.7889 4.98037ZM18.0241 7.04786C18.1602 7.08282 18.3 7.10091 18.4405 7.10175H18.6512C18.4894 7.24136 18.352 7.40693 18.2446 7.59168L16.6033 10.4283L16.1624 10.2324L18.0241 7.04786ZM14.8984 12.3293L15.3393 12.5301L15.1384 12.878C14.9691 13.1766 14.8813 13.5145 14.8837 13.8578C14.7801 13.8232 14.6679 13.8241 14.565 13.8605C14.462 13.8969 14.3741 13.9667 14.3154 14.0587L13.4874 15.4256L13.1444 15.2247L14.8984 12.3293ZM15.8292 15.5775L17.9702 16.8219L18.1221 16.8954L21.2527 18.7228C21.2852 18.7414 21.3197 18.7562 21.3556 18.7669C21.4426 18.8419 21.536 18.9091 21.6348 18.9677L23.7954 20.2269C24.2445 20.4867 24.7783 20.5578 25.2798 20.4246C25.7812 20.2914 26.2094 19.9649 26.4704 19.5165L27.4013 17.9242L28.5085 18.4141C28.0186 19.394 27.6707 20.2807 27.4845 20.7756C26.8956 20.7001 26.2972 20.753 25.7306 20.9306C25.164 21.1082 24.6426 21.4063 24.202 21.8044L14.3251 15.9694L14.8984 15.0238L15.8292 15.5775ZM20.944 16.3074C20.7748 16.6061 20.6869 16.944 20.6893 17.2873L19.9544 16.8611C20.2483 16.6914 20.4931 16.4483 20.6648 16.1556L21.2282 15.1757L21.532 15.3129L20.944 16.3074ZM2.69922 33.5479L1.19025 34.7237L1.39602 33.3079C1.61728 33.3355 1.84178 33.3205 2.05742 33.2638C2.34657 33.1866 2.61075 33.0357 2.82411 32.8258C3.03748 32.6159 3.19273 32.3543 3.27469 32.0664C3.35665 31.7786 3.36251 31.4744 3.29169 31.1836C3.22088 30.8929 3.07582 30.6254 2.87069 30.4075L3.13036 29.9617L4.36497 30.677L2.69922 33.5479ZM7.07425 30.3487L6.94198 30.5741C6.88775 30.6667 6.79913 30.734 6.69544 30.7616C6.59174 30.7891 6.48136 30.7745 6.38836 30.7211L3.19405 28.8691L2.11131 28.2224C2.01873 28.1682 1.95134 28.0796 1.92381 27.9759C1.89628 27.8722 1.91084 27.7618 1.96433 27.6688L2.09661 27.4435C2.123 27.3971 2.15834 27.3565 2.20057 27.324C2.24281 27.2914 2.2911 27.2677 2.34263 27.254C2.39415 27.2403 2.44789 27.237 2.5007 27.2443C2.55351 27.2516 2.60434 27.2693 2.65023 27.2965L6.95667 29.7951C7.04616 29.8524 7.10929 29.9428 7.13225 30.0466C7.1552 30.1504 7.13611 30.259 7.07915 30.3487H7.07425ZM8.14229 28.5066L8.01001 28.732C7.98363 28.7783 7.94829 28.8189 7.90605 28.8514C7.86382 28.884 7.81553 28.9078 7.764 28.9214C7.71247 28.9351 7.65874 28.9384 7.60593 28.9311C7.55311 28.9238 7.50228 28.9061 7.4564 28.8789L3.14995 26.3803C3.05737 26.3261 2.98998 26.2375 2.96245 26.1338C2.93492 26.0301 2.94948 25.9197 3.00297 25.8267L3.14015 25.616C3.16654 25.5697 3.20188 25.5291 3.24411 25.4966C3.28635 25.464 3.33464 25.4402 3.38617 25.4265C3.4377 25.4129 3.49143 25.4096 3.54424 25.4169C3.59705 25.4242 3.64788 25.4419 3.69377 25.469L7.99042 27.9579C8.03756 27.9834 8.07912 28.0182 8.11263 28.06C8.14614 28.1019 8.17094 28.15 8.18555 28.2016C8.20016 28.2532 8.20429 28.3072 8.1977 28.3604C8.19112 28.4137 8.17394 28.465 8.14719 28.5115L8.14229 28.5066ZM9.21033 26.6645L9.07805 26.8898C9.05167 26.9362 9.01633 26.9768 8.97409 27.0093C8.93185 27.0418 8.88356 27.0656 8.83204 27.0793C8.78051 27.093 8.72677 27.0963 8.67396 27.089C8.62115 27.0817 8.57032 27.064 8.52443 27.0368L4.21799 24.5382C4.17166 24.5118 4.13105 24.4765 4.09852 24.4342C4.06599 24.392 4.04219 24.3437 4.02851 24.2922C4.01483 24.2407 4.01154 24.1869 4.01884 24.1341C4.02614 24.0813 4.04387 24.0305 4.07101 23.9846L4.20329 23.7592C4.22989 23.7136 4.26521 23.6737 4.30724 23.6417C4.34928 23.6098 4.39719 23.5865 4.44826 23.573H4.55114C4.6217 23.5728 4.69103 23.5914 4.75201 23.6269L9.06825 26.106C9.11541 26.1328 9.15671 26.1688 9.18973 26.2119C9.22275 26.2549 9.24681 26.3042 9.26051 26.3567C9.27421 26.4092 9.27726 26.4639 9.26948 26.5176C9.2617 26.5713 9.24326 26.6229 9.21523 26.6694L9.21033 26.6645ZM10.2784 24.8272L10.1461 25.0526C10.1197 25.0989 10.0844 25.1396 10.0421 25.1721C9.99989 25.2046 9.9516 25.2284 9.90007 25.2421C9.84855 25.2558 9.79481 25.2591 9.742 25.2518C9.68919 25.2445 9.63836 25.2267 9.59247 25.1996L5.28603 22.701C5.19345 22.6467 5.12605 22.5581 5.09852 22.4544C5.07099 22.3507 5.08556 22.2404 5.13905 22.1474L5.27133 21.922C5.30738 21.8605 5.35894 21.8096 5.42085 21.7744C5.48275 21.7391 5.55284 21.7208 5.62408 21.7211C5.69463 21.7209 5.76397 21.7395 5.82495 21.775L10.1314 24.2736C10.1783 24.3001 10.2195 24.3356 10.2526 24.3781C10.2856 24.4206 10.3099 24.4692 10.3241 24.5211C10.3382 24.5731 10.3419 24.6274 10.3349 24.6807C10.3279 24.7341 10.3103 24.7856 10.2833 24.8321L10.2784 24.8272ZM11.3464 22.99L11.2141 23.2154C11.1877 23.2617 11.1524 23.3023 11.1102 23.3349C11.0679 23.3674 11.0196 23.3912 10.9681 23.4049C10.9166 23.4186 10.8628 23.4218 10.81 23.4145C10.7572 23.4072 10.7064 23.3895 10.6605 23.3624L6.35406 20.8638C6.26149 20.8095 6.19409 20.7209 6.16656 20.6172C6.13903 20.5135 6.1536 20.4031 6.20709 20.3101L6.33937 20.0848C6.37542 20.0233 6.42698 19.9724 6.48888 19.9372C6.55079 19.9019 6.62087 19.8836 6.69211 19.8839C6.76267 19.8837 6.83201 19.9023 6.89298 19.9378L11.1994 22.4364C11.2462 22.4624 11.2872 22.4974 11.3203 22.5395C11.3533 22.5815 11.3776 22.6297 11.3917 22.6813C11.4059 22.7329 11.4096 22.7867 11.4026 22.8397C11.3957 22.8928 11.3782 22.9438 11.3513 22.99H11.3464ZM12.2675 20.5992C12.3138 20.6256 12.3544 20.6609 12.3869 20.7032C12.4195 20.7454 12.4433 20.7937 12.4569 20.8452C12.4706 20.8967 12.4739 20.9505 12.4666 21.0033C12.4593 21.0561 12.4416 21.1069 12.4144 21.1528L12.2822 21.3782C12.2279 21.4708 12.1393 21.5382 12.0356 21.5657C11.9319 21.5932 11.8216 21.5786 11.7285 21.5252L7.4221 19.0265C7.37577 19.0002 7.33516 18.9648 7.30263 18.9226C7.2701 18.8803 7.2463 18.832 7.23262 18.7805C7.21894 18.729 7.21565 18.6753 7.22295 18.6224C7.23025 18.5696 7.24798 18.5188 7.27513 18.4729L7.4172 18.2671C7.44359 18.2208 7.47893 18.1802 7.52116 18.1477C7.5634 18.1151 7.61169 18.0913 7.66322 18.0777C7.71474 18.064 7.76848 18.0607 7.82129 18.068C7.8741 18.0753 7.92493 18.093 7.97082 18.1202L12.2675 20.5992ZM10.1265 18.2231L10.4841 17.6106L11.464 18.1496L11.0818 18.7571L10.1265 18.2231ZM26.0883 26.4146C25.8766 26.2893 25.7007 26.1118 25.5774 25.899C25.4541 25.6862 25.3876 25.4453 25.3841 25.1994C25.3807 24.9535 25.4405 24.7108 25.5578 24.4947C25.6751 24.2785 25.8459 24.0961 26.054 23.965L26.6076 26.5959C26.4244 26.5694 26.2481 26.5078 26.0883 26.4146ZM28.048 25.8904C27.9273 26.0914 27.759 26.2596 27.558 26.3803L26.9995 23.7396C27.1837 23.7622 27.3618 23.8205 27.5237 23.9111C27.8564 24.1032 28.1006 24.418 28.204 24.7879C28.3075 25.1578 28.262 25.5536 28.0774 25.8904H28.048ZM28.484 23.4408C28.3366 23.2998 28.172 23.1779 27.9941 23.0782C27.4891 22.7865 26.8951 22.6889 26.3234 22.8039H26.3136H26.2891H26.196C25.8888 22.8853 25.6006 23.0267 25.3484 23.2202C25.0961 23.4136 24.8846 23.6551 24.7263 23.9307C24.7263 23.9601 24.7018 23.9944 24.6822 24.0238L15.0992 18.4043C14.6039 18.115 14.0162 18.0273 13.458 18.1594L10.5625 16.523L9.67576 16.0331L10.3959 14.7936L24.0355 22.8284C24.1332 22.8852 24.2475 22.9065 24.3592 22.8886C24.4708 22.8707 24.5728 22.8148 24.6479 22.7304C25.0055 22.3286 26.2499 21.3782 27.6609 21.8093C27.7831 21.8465 27.9149 21.8346 28.0284 21.776C28.1419 21.7174 28.228 21.6169 28.2684 21.4958C28.5974 20.5775 28.9802 19.6793 29.4149 18.8061L30.0371 19.0853C29.3437 20.4652 28.8268 21.9268 28.4987 23.4359L28.484 23.4408ZM32.0213 18.6444C31.9935 18.7026 31.9444 18.7478 31.8842 18.7706C31.8239 18.7934 31.7572 18.7921 31.6979 18.7669L14.5505 11.1191C14.4915 11.0924 14.4454 11.0434 14.4225 10.9828C14.3995 10.9222 14.4015 10.8549 14.428 10.7958C14.4472 10.752 14.4787 10.7147 14.5187 10.6886C14.5588 10.6625 14.6056 10.6486 14.6534 10.6488C14.6857 10.6421 14.7191 10.6421 14.7514 10.6488L31.8988 18.2965C31.9318 18.3081 31.962 18.3266 31.9873 18.3508C32.0126 18.375 32.0324 18.4043 32.0454 18.4368C32.0584 18.4693 32.0643 18.5042 32.0626 18.5392C32.061 18.5741 32.0519 18.6083 32.036 18.6395L32.0213 18.6444ZM31.2962 16.9786L30.6299 16.6798C30.8843 16.2985 31.1625 15.9336 31.4627 15.5873C31.5249 15.5156 31.5649 15.4275 31.5779 15.3336C31.591 15.2397 31.5765 15.144 31.5362 15.0581C31.4962 14.9716 31.4317 14.8986 31.3508 14.8481C31.2699 14.7976 31.176 14.7718 31.0806 14.774C30.3738 14.8216 29.6759 14.9582 29.0033 15.1806L29.5961 14.1714C29.7255 13.9488 29.8098 13.7029 29.8442 13.4477C29.8785 13.1925 29.8622 12.9331 29.7962 12.6842C29.7303 12.4353 29.6159 12.2019 29.4597 11.9973C29.3034 11.7926 29.1084 11.6207 28.8857 11.4915L26.7546 10.2471C26.532 10.1177 26.2861 10.0334 26.0309 9.99904C25.7757 9.9647 25.5163 9.98098 25.2674 10.047C25.0185 10.1129 24.7851 10.2273 24.5804 10.3835C24.3758 10.5398 24.2039 10.7348 24.0747 10.9575L22.7764 13.167L22.4726 13.0298L23.7905 10.7811C23.9199 10.5585 24.0042 10.3126 24.0385 10.0574C24.0729 9.80226 24.0566 9.54282 23.9906 9.29394C23.9247 9.04506 23.8103 8.81163 23.6541 8.60697C23.4978 8.40231 23.3028 8.23045 23.0801 8.1012L20.9391 6.85679C20.5446 6.63124 20.0839 6.54984 19.6359 6.62652C19.7645 6.51132 19.8751 6.37756 19.9642 6.22968C20.0049 6.16203 20.0409 6.09164 20.072 6.01902L33.7458 13.9558C32.8685 14.907 32.0551 15.9152 31.3109 16.9737L31.2962 16.9786Z" fill="#F2F1CE"/>
</svg>
