<svg width="36" height="35" viewBox="0 0 36 35" fill="none" xmlns="http://www.w3.org/2000/svg">
<g id="Watch" clip-path="url(#clip0_52_99)">
<path id="Icon" d="M18 13.1249V17.4999L20.1875 19.6874M24.577 25.302L24.0666 30.8874C24.0009 31.6146 23.6649 32.2907 23.1248 32.7821C22.5848 33.2736 21.8801 33.5446 21.15 33.5416H14.8354C14.1052 33.5446 13.4005 33.2736 12.8605 32.7821C12.3205 32.2907 11.9844 31.6146 11.9187 30.8874L11.4083 25.302M11.4229 9.69786L11.9333 4.11244C11.9988 3.38776 12.3328 2.71373 12.8697 2.22267C13.4066 1.7316 14.1077 1.45896 14.8354 1.45828H21.1791C21.9093 1.45531 22.614 1.72631 23.154 2.21774C23.694 2.70916 24.0301 3.38525 24.0958 4.11244L24.6062 9.69786M28.2083 17.4999C28.2083 23.1378 23.6379 27.7083 18 27.7083C12.3621 27.7083 7.79163 23.1378 7.79163 17.4999C7.79163 11.862 12.3621 7.29161 18 7.29161C23.6379 7.29161 28.2083 11.862 28.2083 17.4999Z" stroke="#F2F1CE" stroke-width="3" stroke-linecap="round" stroke-linejoin="round"/>
</g>
<defs>
<clipPath id="clip0_52_99">
<rect width="35" height="35" fill="white" transform="translate(0.5)"/>
</clipPath>
</defs>
</svg>
