<svg width="29" height="29" viewBox="0 0 29 29" fill="none" xmlns="http://www.w3.org/2000/svg">
<path id="Vector" d="M0.900391 28.1441L2.8154 21.1481C1.6337 19.1003 1.01277 16.7789 1.01391 14.3985C1.01731 6.95639 7.07337 0.90033 14.5144 0.90033C18.1252 0.901465 21.5149 2.30792 24.0644 4.85976C26.6128 7.41159 28.0159 10.8034 28.0147 14.411C28.0113 21.8542 21.9553 27.9102 14.5144 27.9102C12.2553 27.9091 10.0293 27.3427 8.05756 26.2666L0.900391 28.1441ZM8.38905 23.8226C10.2915 24.952 12.1078 25.6286 14.5098 25.6297C20.6941 25.6297 25.7319 20.5965 25.7353 14.4087C25.7376 8.20847 20.7236 3.18199 14.5189 3.17972C8.32996 3.17972 3.29557 8.21301 3.2933 14.3996C3.29216 16.9253 4.03228 18.8165 5.27529 20.7951L4.14126 24.9361L8.38905 23.8226ZM21.3151 17.62C21.2311 17.4793 21.0063 17.3953 20.668 17.2262C20.3308 17.057 18.6724 16.2408 18.3625 16.1284C18.0537 16.0161 17.829 15.9593 17.6031 16.2976C17.3783 16.6348 16.7313 17.3953 16.5349 17.62C16.3386 17.8448 16.141 17.8732 15.8039 17.7041C15.4667 17.5349 14.3793 17.1796 13.0909 16.0297C12.0885 15.1352 11.4108 14.0307 11.2145 13.6924C11.0181 13.3552 11.194 13.1725 11.362 13.0045C11.5141 12.8535 11.6991 12.6106 11.8683 12.4131C12.0397 12.2178 12.0953 12.0771 12.2088 11.8512C12.3212 11.6264 12.2656 11.4289 12.1804 11.2598C12.0953 11.0918 11.4211 9.43106 11.1407 8.75561C10.8659 8.09836 10.5878 8.1869 10.3812 8.17668L9.73417 8.16533C9.5094 8.16533 9.14393 8.24933 8.83511 8.58761C8.52636 8.92591 7.65457 9.74091 7.65457 11.4016C7.65457 13.0624 8.86355 14.6664 9.03151 14.8911C9.20066 15.1159 11.4097 18.5237 14.7936 19.9846C15.5984 20.332 16.2273 20.5397 16.7165 20.6952C17.5248 20.9517 18.2603 20.9154 18.8415 20.8291C19.4897 20.7327 20.8372 20.0129 21.1187 19.2251C21.4002 18.4362 21.4002 17.7608 21.3151 17.62Z" fill="#F2F1CE"/>
</svg>
